<mxfile host="app.diagrams.net" modified="2023-01-12T03:20:06.526Z" agent="5.0 (X11; Linux x86_64) AppleWebKit/537.36 (KHTML, like Gecko) Chrome/108.0.0.0 Safari/537.36" etag="f1Sjz7L9a8-PG0KTvQgz" version="20.8.1" type="github">
  <diagram name="Page-1" id="822b0af5-4adb-64df-f703-e8dfc1f81529">
    <mxGraphModel dx="777" dy="461" grid="1" gridSize="10" guides="1" tooltips="1" connect="1" arrows="1" fold="1" page="1" pageScale="1" pageWidth="1100" pageHeight="850" background="none" math="0" shadow="0">
      <root>
        <mxCell id="0" />
        <mxCell id="1" parent="0" />
        <mxCell id="LHnNvq8UYO9nDYmu-Zto-1" value="&lt;p style=&quot;line-height: 120%;&quot;&gt;&lt;br&gt;&lt;/p&gt;" style="verticalLabelPosition=bottom;verticalAlign=top;html=1;shape=mxgraph.basic.pie;startAngle=0.8132844603624492;endAngle=0.6894405292045782;fillColor=#FF3333;strokeColor=#000000;strokeWidth=1;align=center;" vertex="1" parent="1">
          <mxGeometry x="510" y="375" width="100" height="100" as="geometry" />
        </mxCell>
        <mxCell id="LHnNvq8UYO9nDYmu-Zto-11" style="edgeStyle=orthogonalEdgeStyle;curved=1;rounded=0;orthogonalLoop=1;jettySize=auto;html=1;fontSize=12;" edge="1" parent="1">
          <mxGeometry relative="1" as="geometry">
            <mxPoint x="190" y="330" as="sourcePoint" />
            <mxPoint x="500" y="420" as="targetPoint" />
            <Array as="points">
              <mxPoint x="190" y="420" />
            </Array>
          </mxGeometry>
        </mxCell>
        <mxCell id="LHnNvq8UYO9nDYmu-Zto-2" value="&lt;p style=&quot;line-height: 120%;&quot;&gt;&lt;br&gt;&lt;/p&gt;" style="ellipse;whiteSpace=wrap;html=1;aspect=fixed;strokeColor=#000000;strokeWidth=1;fontSize=12;fillColor=#6666FF;" vertex="1" parent="1">
          <mxGeometry x="150" y="240" width="80" height="80" as="geometry" />
        </mxCell>
        <mxCell id="LHnNvq8UYO9nDYmu-Zto-3" value="macrophage" style="text;html=1;align=center;verticalAlign=middle;resizable=0;points=[];autosize=1;strokeColor=none;fillColor=none;fontSize=12;" vertex="1" parent="1">
          <mxGeometry x="515" y="345" width="90" height="30" as="geometry" />
        </mxCell>
        <mxCell id="LHnNvq8UYO9nDYmu-Zto-4" value="T cell" style="text;html=1;align=center;verticalAlign=middle;resizable=0;points=[];autosize=1;strokeColor=none;fillColor=none;fontSize=12;" vertex="1" parent="1">
          <mxGeometry x="165" y="209" width="50" height="30" as="geometry" />
        </mxCell>
        <mxCell id="LHnNvq8UYO9nDYmu-Zto-5" value="" style="ellipse;whiteSpace=wrap;html=1;aspect=fixed;strokeColor=#000000;strokeWidth=1;fontSize=12;fillColor=#00CC66;" vertex="1" parent="1">
          <mxGeometry x="150" y="560" width="80" height="80" as="geometry" />
        </mxCell>
        <mxCell id="LHnNvq8UYO9nDYmu-Zto-6" value="B cell" style="text;html=1;align=center;verticalAlign=middle;resizable=0;points=[];autosize=1;strokeColor=none;fillColor=none;fontSize=12;" vertex="1" parent="1">
          <mxGeometry x="165" y="530" width="50" height="30" as="geometry" />
        </mxCell>
      </root>
    </mxGraphModel>
  </diagram>
</mxfile>
